<svg width="22" height="22" viewBox="0 0 22 22" fill="none" xmlns="http://www.w3.org/2000/svg">
<path d="M19.25 17.4166L14.5255 12.6921C15.3989 11.3647 15.7487 9.76041 15.5072 8.18987C15.2657 6.61933 14.4501 5.19425 13.2182 4.19055C11.9863 3.18686 10.4258 2.67594 8.83889 2.75672C7.25194 2.83749 5.75141 3.50422 4.62782 4.62782C3.50422 5.75141 2.83749 7.25194 2.75672 8.83889C2.67594 10.4258 3.18686 11.9863 4.19055 13.2182C5.19425 14.4501 6.61933 15.2657 8.18987 15.5072C9.76041 15.7487 11.3647 15.3989 12.6921 14.5255L17.4166 19.25L19.25 17.4166ZM4.58329 9.16663C4.58329 6.63938 6.63938 4.58329 9.16663 4.58329C11.6939 4.58329 13.75 6.63938 13.75 9.16663C13.75 11.6939 11.6939 13.75 9.16663 13.75C6.63938 13.75 4.58329 11.6939 4.58329 9.16663Z" fill="white"/>
</svg>
